Coordinates
version=1
nRows=14
nColumns=36
inDegrees=yes

Units are S.I. units (second, meters, Newtons, ...)
If the header above contains a line with 'inDegrees', this indicates whether rotational values are in degrees (yes) or radians (no).

endheader
time	pelvis_tilt	pelvis_list	pelvis_rotation	pelvis_tx	pelvis_ty	pelvis_tz	hip_flexion_r	hip_adduction_r	hip_rotation_r	knee_angle_r	knee_angle_r_beta	ankle_angle_r	subtalar_angle_r	mtp_angle_r	hip_flexion_l	hip_adduction_l	hip_rotation_l	knee_angle_l	knee_angle_l_beta	ankle_angle_l	subtalar_angle_l	mtp_angle_l	lumbar_extension	lumbar_bending	lumbar_rotation	arm_flex_r	arm_add_r	arm_rot_r	elbow_flex_r	pro_sup_r	arm_flex_l	arm_add_l	arm_rot_l	elbow_flex_l	pro_sup_l
      0.00000000	     -3.51211126	     -1.12138413	     -0.08239048	     -1.06567996	      1.35012047	     -0.02943540	      6.97197202	      3.72132133	      9.29220314	      7.11691937	      0.12421368	     -0.75841657	    -13.92777305	     -5.97864359	      7.11973313	     -2.81858940	      1.51885152	     10.38080186	      0.18117917	      6.32258217	     -4.98774007	     -5.97864359	     -8.00740421	      2.53211716	      0.04384745	     -6.75426422	     -9.78787367	     -1.00959797	     40.07341847	     82.93032924	     -9.48354729	     -6.81789502	     -3.51877156	     42.72047365	     83.03878253
      0.01666670	     -6.11371497	     -0.50791717	     -0.76450963	     -1.06297962	      1.34614835	     -0.02876284	     10.68969306	      3.26718878	      9.85968812	      9.24219173	      0.16130668	      2.98099265	    -12.11881202	     -6.56410986	     11.02590643	     -1.96082799	      0.90015179	     12.62706379	      0.22038384	      7.00301128	     -4.10524145	     -6.56410986	     -4.44103503	      2.27819822	      0.60196406	     -8.72999692	     -8.44097470	     -6.02278883	     41.56216177	     88.43244590	    -10.29382771	     -4.59493688	     -9.75878467	     42.73028739	     91.01300460
      0.03333330	     -7.13416861	      0.15378897	     -1.66243035	     -1.05462330	      1.34751344	     -0.02237724	     10.91413869	      2.88313980	      9.62346704	      8.41311022	      0.14683647	      3.52331065	    -11.17173547	     -6.57579193	     11.43077449	     -1.88872270	     -0.40224826	     12.11360709	      0.21142233	      6.60979012	     -4.22083555	     -6.57579193	     -2.69417531	      1.56260851	      1.15963176	     -9.81104152	     -8.15428619	     -6.26901729	     42.18447559	     88.40616322	    -11.88390889	     -4.83833067	     -9.67851913	     43.34502101	     91.06188835
      0.05000000	     -7.25327974	      0.52579234	     -2.54486470	     -1.05472470	      1.34781287	     -0.02094068	     10.87332760	      2.76268960	      9.48617452	      8.53869449	      0.14902833	      4.40679027	    -10.33050223	     -6.75340162	     11.59671249	     -1.86755671	     -1.25660333	     12.48253444	      0.21786133	      6.54333339	     -5.24922680	     -6.75340162	     -2.56057004	      1.30988118	      2.46551123	    -10.60651792	     -8.05909953	     -7.14778658	     42.62185258	     88.26829240	    -12.13794104	     -5.62600528	     -7.79199153	     43.93788578	     91.13165578
      0.06666670	     -7.37571751	      0.77705754	     -3.25019679	     -1.06165230	      1.35141253	     -0.02483460	     11.21496619	      2.60721546	      9.55196586	      8.61462030	      0.15035349	      4.29417588	    -10.31270057	     -6.77222090	     12.01336949	     -1.67971769	     -1.63508871	     12.56114989	      0.21923342	      5.65834281	     -6.40878072	     -6.77222090	     -2.73197271	      1.45147254	      3.09956487	    -10.16891466	     -8.58138195	     -6.94051306	     43.43629817	     88.68652607	    -12.23468774	     -5.37659519	     -7.63464832	     44.58154491	     91.40742630
      0.08333330	     -7.25805372	      0.92056256	     -3.66154244	     -1.06178564	      1.35099138	     -0.02448729	     11.19295193	      2.45907851	      9.66249933	      8.54717002	      0.14917626	      4.10775669	    -10.36445644	     -6.81392271	     12.14238577	     -1.51624236	     -1.82796423	     12.51727433	      0.21846765	      5.15793112	     -6.93245428	     -6.81392271	     -3.07771211	      1.55580298	      3.55137961	     -9.83512194	     -8.95945837	     -6.89138033	     43.66146074	     88.02355867	    -12.00562931	     -5.17630804	     -7.65394567	     45.02869228	     90.64026153
      0.10000000	     -7.36800239	      0.96772521	     -3.70123650	     -1.06173751	      1.35426490	     -0.02420585	     11.30269503	      2.39005088	      9.71601381	      8.35818407	      0.14587783	      3.76116629	    -10.60441295	     -6.83325115	     12.67777308	     -1.43722780	     -1.72151807	     12.59038203	      0.21974362	      4.38307311	     -8.30193435	     -6.83325115	     -3.19876009	      1.62158376	      3.81904266	     -9.72320024	     -9.15474978	     -7.05051860	     43.63687982	     88.65804012	    -11.66776680	     -4.98016184	     -7.79714455	     45.31532039	     91.13433866
      0.11666670	     -7.08024109	      0.92384981	     -3.72209419	     -1.05503224	      1.35031452	     -0.01919284	     10.37210170	      2.40942966	      9.88959609	      7.44005023	      0.12985337	      3.20491523	    -10.99619744	     -7.03714504	     12.06686100	     -1.55145710	     -1.94372526	     11.91847011	      0.20801655	      3.84032814	     -8.76962459	     -7.03714504	     -3.37937645	      1.61720914	      3.88760528	     -9.95366035	     -8.91880482	     -8.13776824	     43.87495137	     92.92640801	    -11.86256786	     -4.81992040	     -9.05878967	     45.82149763	     94.55314721
      0.13333330	     -6.90228632	      0.79213690	     -3.90793910	     -1.05507358	      1.35367331	     -0.01932652	      9.92748928	      2.60777811	      9.91621945	      7.24536352	      0.12645545	      2.72648132	    -11.16605204	     -7.09377190	     11.67813919	     -1.75430975	     -2.03567431	     11.47720316	      0.20031498	      3.35763283	     -9.41510801	     -7.09377190	     -3.51991858	      1.73982654	      4.16775508	     -9.95760370	     -8.97007394	     -7.90365167	     43.64267792	     91.34706847	    -11.87703222	     -4.57449689	     -9.14217880	     45.40355997	     92.79921865
      0.15000000	     -6.65679299	      0.67056669	     -4.01608017	     -1.05519198	      1.35358982	     -0.01905404	      9.47043041	      2.71876729	      9.89355106	      7.13534138	      0.12453520	      2.45454462	    -11.64898964	     -7.11244689	     11.19137671	     -1.93053818	     -2.09673951	     11.27473892	      0.19678132	      2.92678875	    -10.32333176	     -7.11244689	     -3.76477904	      1.74269125	      4.22070112	     -9.97269719	     -8.89547218	     -7.71741438	     43.47854877	     90.96094029	    -11.86186139	     -4.60420804	     -9.05381063	     44.91306056	     92.37177203
      0.16666670	     -6.72873234	      0.57934054	     -4.07678469	     -1.05532352	      1.34863184	     -0.01942325	      9.46057520	      2.78326930	      9.72934512	      7.07180789	      0.12342633	      2.21699137	    -12.19889089	     -7.19639172	     11.09835652	     -2.05568728	     -1.76289823	     10.80814396	      0.18863770	      2.71619751	    -10.75597111	     -7.19639172	     -3.66529788	      1.77806475	      4.43376049	    -10.33864312	     -8.81892343	     -8.28071735	     43.76473164	     93.92209353	    -11.93368406	     -4.41487876	     -9.48637794	     44.64794695	     95.34861999
      0.18333330	     -6.70334760	      0.55531319	     -4.14207007	     -1.05513864	      1.34871852	     -0.01944335	      9.38910299	      2.75699993	      9.62989366	      6.97724283	      0.12177586	      2.17047987	    -12.54565137	     -7.22065949	     10.77185875	     -2.08002042	     -1.39189660	      9.98913188	      0.17434324	      2.84587016	    -10.16186089	     -7.22065949	     -3.69889200	      1.73387153	      4.41589235	    -10.34931077	     -8.76870216	     -7.91243934	     44.16430515	     92.88191252	    -11.94248591	     -4.39801080	     -9.37265958	     44.36267325	     94.30645770
      0.20000000	     -6.65675607	      0.31300858	     -4.03599065	     -1.04823330	      1.34518704	     -0.01518753	      9.01491379	      3.01076875	      9.65489556	      6.75365951	      0.11787359	      1.81663948	    -13.41117656	     -7.26484134	     10.37101427	     -2.41039990	     -1.21254496	      9.60664325	      0.16766755	      3.44666906	     -9.43014460	     -7.26484134	     -3.56628681	      1.82529790	      4.43348631	    -10.64559306	     -8.75631283	     -6.80101563	     44.73627805	     91.17893443	    -11.97183887	     -4.68716118	     -8.58484914	     43.65549232	     92.55652396
      0.21666670	     -6.87992452	      0.19677618	     -4.09492022	     -1.05456927	      1.34573601	     -0.01977687	      9.41464078	      3.14768431	      9.30619798	      7.12232437	      0.12430801	      1.85621411	    -13.96267298	     -7.32434977	     10.63181078	     -2.51471254	     -0.88295842	      9.60255387	      0.16759618	      3.78291968	     -9.33551612	     -7.32434977	     -3.40627067	      1.80332326	      4.48143806	    -10.58492350	     -8.65165243	     -6.42323119	     45.78748829	     94.40972014	    -11.95484924	     -4.59653196	     -9.02089575	     43.55086680	     96.21515094
